HIERARCHY
ROOT Hips
{
    OFFSET 0.000000 0.000000 0.000000
    CHANNELS 6 Xposition Yposition Zposition Zrotation Xrotation Yrotation
    JOINT Spine
    {
        OFFSET -0.000000 7.573766 0.000000
        CHANNELS 3 Zrotation Xrotation Yrotation
        JOINT Spine1
        {
            OFFSET -0.000000 21.635258 0.000000
            CHANNELS 3 Zrotation Xrotation Yrotation
            JOINT Neck
            {
                OFFSET -0.000000 21.546408 1.958764
                CHANNELS 3 Zrotation Xrotation Yrotation
                JOINT Head
                {
                    OFFSET -0.000000 12.930820 -1.847260
                    CHANNELS 3 Zrotation Xrotation Yrotation
                    End Site
                    {
                        OFFSET -0.000000 23.090748 0.000000
                    }
                }
            }
            JOINT LeftShoulder
            {
                OFFSET 3.708222 19.598145 -0.368577
                CHANNELS 3 Zrotation Xrotation Yrotation
                JOINT LeftArm
                {
                    OFFSET 11.172601 0.000000 0.000000
                    CHANNELS 3 Zrotation Xrotation Yrotation
                    JOINT LeftForeArm
                    {
                        OFFSET 28.642139 0.000000 0.000000
                        CHANNELS 3 Zrotation Xrotation Yrotation
                        JOINT LeftHand
                        {
                            OFFSET 23.934578 0.000000 0.000000
                            CHANNELS 3 Zrotation Xrotation Yrotation
                            End Site
                            {
                                OFFSET 13.854450 0.000000 0.000000
                            }
                        }
                    }
                }
            }
            JOINT RightShoulder
            {
                OFFSET -3.636642 19.598145 -0.368577
                CHANNELS 3 Zrotation Xrotation Yrotation
                JOINT RightArm
                {
                    OFFSET -11.172601 0.000000 0.000000
                    CHANNELS 3 Zrotation Xrotation Yrotation
                    JOINT RightForeArm
                    {
                        OFFSET -28.642139 0.000000 0.000000
                        CHANNELS 3 Zrotation Xrotation Yrotation
                        JOINT RightHand
                        {
                            OFFSET -23.934578 0.000000 0.000000
                            CHANNELS 3 Zrotation Xrotation Yrotation
                            End Site
                            {
                                OFFSET -13.854450 0.000000 0.000000
                            }
                        }
                    }
                }
            }
        }
    }
    JOINT LeftUpLeg
    {
        OFFSET 9.236300 0.000000 0.000000
        CHANNELS 3 Zrotation Xrotation Yrotation
        JOINT LeftLeg
        {
            OFFSET -0.000000 -40.706093 0.000000
            CHANNELS 3 Zrotation Xrotation Yrotation
            JOINT LeftFoot
            {
                OFFSET -0.000000 -40.997513 0.000000
                CHANNELS 3 Zrotation Xrotation Yrotation
                JOINT LeftToeBase
                {
                    OFFSET -0.000000 -6.003594 13.854450
                    CHANNELS 3 Zrotation Xrotation Yrotation
                    End Site
                    {
                        OFFSET -0.000000 0.000000 3.694520
                    }
                }
            }
        }
    }
    JOINT RightUpLeg
    {
        OFFSET -9.236300 0.000000 0.000000
        CHANNELS 3 Zrotation Xrotation Yrotation
        JOINT RightLeg
        {
            OFFSET -0.000000 -40.706093 0.000000
            CHANNELS 3 Zrotation Xrotation Yrotation
            JOINT RightFoot
            {
                OFFSET -0.000000 -40.997513 0.000000
                CHANNELS 3 Zrotation Xrotation Yrotation
                JOINT RightToeBase
                {
                    OFFSET -0.000000 -6.003594 13.854450
                    CHANNELS 3 Zrotation Xrotation Yrotation
                    End Site
                    {
                        OFFSET -0.000000 0.000000 3.694520
                    }
                }
            }
        }
    }
}
MOTION
Frames:    4
Frame Time:    0.004000
-31.182026    99.182686    -86.857506    -11.387691    1.021608    11.327273    7.627164    15.024643    -3.582478    6.307425    -2.185831    -2.454715    -1.333661    16.078051    0.011709    5.452153    26.758131    -0.523004    6.020335    2.555372    -11.792031    -69.474655    47.081024    -11.461342    16.635475    -14.911484    -19.882193    16.830452    -12.884378    -5.730969    0.216680    6.450384    -7.019500    54.747562    48.588936    24.007557    -20.089453    -14.160437    21.876366    -25.785000    -10.892700    2.516973    10.761614    -1.605562    4.307493    2.861549    11.763291    6.046274    -2.278697    35.058189    -18.791807    0.000000    0.000000    0.000000    5.482584    -65.153557    -1.770131    74.799561    81.827324    -57.825153    -17.022776    -24.953690    -21.721121    0.000000    0.000000    0.000000    
-31.180910    99.527779    -86.641266    -11.207779    1.145551    11.420942    7.530476    15.052521    -3.523075    6.329294    -2.251240    -2.402206    -1.472760    16.089218    -0.022134    5.615543    26.704662    -0.570236    5.869186    2.522877    -11.876276    -69.616890    46.989632    -11.162076    16.567976    -14.937479    -19.999447    16.366007    -12.899758    -5.856776    0.249877    6.344334    -6.951433    54.986149    48.375179    23.742470    -20.027258    -13.973553    21.924679    -25.841896    -10.724058    2.587025    10.543355    -1.929204    4.387078    3.039502    12.450747    5.921359    -2.506104    34.945393    -18.451191    0.000000    0.000000    0.000000    5.423864    -64.724480    -1.582282    71.753311    81.628860    -54.897495    -17.103706    -24.975052    -21.744583    0.000000    0.000000    0.000000    
-31.185993    99.865982    -86.419556    -11.076868    1.227334    11.523476    7.504065    15.096786    -3.477739    6.280693    -2.295131    -2.355943    -1.499026    16.066301    -0.071940    5.719844    26.676582    -0.630543    5.833590    2.571202    -11.855447    -69.655258    47.103172    -11.117851    16.512344    -15.008252    -20.007299    16.375761    -12.977468    -5.836759    0.340790    6.306465    -6.958971    55.031219    48.297512    23.673353    -19.958132    -13.918021    21.968859    -26.014391    -10.677895    2.588670    10.359979    -2.233544    4.464807    3.297670    13.196452    5.497014    -2.497082    34.566967    -18.259659    0.000000    0.000000    0.000000    5.398286    -64.270607    -1.564923    68.545288    81.540390    -51.724335    -17.117144    -24.998981    -21.807480    0.000000    0.000000    0.000000    
-31.184635    100.191689    -86.197029    -10.914634    1.266738    11.644158    7.455986    15.159087    -3.447381    6.241279    -2.316429    -2.327507    -1.395369    16.102674    -0.116991    5.573819    26.529869    -0.655844    5.768779    2.600218    -11.866605    -69.767235    47.323528    -10.990388    16.625212    -15.192138    -19.903730    16.492176    -13.158707    -5.797276    0.459784    6.233953    -6.898977    55.252934    48.100243    23.345596    -20.025843    -13.900785    22.154810    -25.861990    -10.607913    2.579328    10.140281    -2.516883    4.411327    3.575810    14.016376    5.160023    -2.672227    34.195999    -17.920727    0.000000    0.000000    0.000000    5.384027    -63.843266    -1.640658    65.301666    81.612526    -48.692638    -16.785582    -25.035355    -21.633402    0.000000    0.000000    0.000000    
